<?xml version="1.0" encoding="UTF-8" standalone="no"?>
<svg width="18px" height="21px" viewBox="0 0 18 21" version="1.1" xmlns="http://www.w3.org/2000/svg" xmlns:xlink="http://www.w3.org/1999/xlink" xmlns:sketch="http://www.bohemiancoding.com/sketch/ns">
    <!-- Generator: Sketch 3.3.3 (12081) - http://www.bohemiancoding.com/sketch -->
    <title>thimble-logo</title>
    <desc>Created with Sketch.</desc>
    <defs></defs>
    <g id="Page-1" stroke="none" stroke-width="1" fill="none" fill-rule="evenodd" sketch:type="MSPage">
        <path d="M18.628,17.071 C18.595,16.972 18.561,16.897 18.529,16.864 L18.529,16.863 L18.527,16.861 C18.362,16.698 17.546,16.249 17.546,16.249 C17.546,16.249 16.256,4.245 16.019,3.856 C15.782,3.469 13.236,0.979 9.506,0.979 L9.462,5.351 C9.823,5.395 10.103,5.703 10.103,6.077 C10.103,6.456 9.815,6.766 9.448,6.803 L9.433,8.297 C9.808,8.328 10.103,8.644 10.103,9.027 C10.103,9.414 9.8,9.731 9.419,9.755 L9.4,11.616 C9.79,11.631 10.103,11.952 10.103,12.345 C10.103,12.744 9.783,13.069 9.386,13.077 L9.372,14.416 C9.371,14.416 5.563,14.566 1.754,16.248 C1.754,16.248 0.936,16.656 0.808,16.861 C0.682,17.066 0.467,18.007 0.6,18.534 L0.603,18.541 C0.777,19.077 5.426,20.819 9.663,20.819 C13.755,20.819 18.466,19.016 18.731,18.534 C18.835,18.207 18.75,17.452 18.628,17.071 M12.668,6.075 C13.072,6.075 13.4,6.403 13.4,6.806 C13.4,7.211 13.072,7.537 12.668,7.537 C12.264,7.537 11.936,7.211 11.936,6.806 C11.936,6.403 12.264,6.075 12.668,6.075 M12.442,10.561 C12.203,10.561 12.005,10.365 12.005,10.122 C12.005,9.881 12.203,9.685 12.442,9.685 C12.683,9.685 12.879,9.881 12.879,10.122 C12.879,10.365 12.683,10.561 12.442,10.561 M12.879,12.218 C12.879,12.459 12.683,12.655 12.442,12.655 C12.203,12.655 12.005,12.459 12.005,12.218 C12.005,11.977 12.203,11.781 12.442,11.781 C12.683,11.781 12.879,11.977 12.879,12.218 M9.663,19.509 C5.835,19.509 2.742,17.994 2.742,17.994 C2.742,17.994 5.785,16.249 9.663,16.249 C13.701,16.248 16.591,17.994 16.591,17.994 C16.591,17.994 13.73,19.509 9.663,19.509" id="Fill-10" fill="#FFFFFF" sketch:type="MSShapeGroup"></path>
        <path d="M6.002,12.655 C5.759,12.655 5.563,12.459 5.563,12.218 C5.563,11.977 5.759,11.781 6.002,11.781 C6.243,11.781 6.439,11.977 6.439,12.218 C6.439,12.459 6.243,12.655 6.002,12.655 M6.002,10.561 C5.76,10.561 5.563,10.366 5.563,10.122 C5.563,9.883 5.76,9.686 6.002,9.686 C6.244,9.686 6.439,9.883 6.439,10.122 C6.439,10.365 6.244,10.561 6.002,10.561 M6.075,7.539 C5.672,7.539 5.344,7.212 5.344,6.806 C5.344,6.403 5.672,6.077 6.075,6.077 C6.479,6.077 6.808,6.403 6.808,6.806 C6.808,7.212 6.479,7.539 6.075,7.539 M9.506,0.981 C6.439,0.979 3.503,3.215 3.282,3.856 C3.053,4.522 1.754,16.243 1.754,16.248 C5.444,14.618 9.134,14.427 9.361,14.417 C9.368,14.417 9.372,14.416 9.372,14.416 L9.386,13.075 L9.372,13.077 C8.97,13.077 8.641,12.75 8.641,12.347 C8.641,11.943 8.97,11.614 9.372,11.614 L9.4,11.617 L9.4,11.616 L9.406,10.996 L9.419,9.752 L9.372,9.756 C8.97,9.756 8.641,9.43 8.641,9.027 C8.641,8.624 8.97,8.294 9.372,8.294 L9.433,8.3 L9.433,8.297 L9.441,7.55 L9.448,6.8 L9.372,6.808 C8.97,6.808 8.641,6.481 8.641,6.077 C8.641,5.674 8.97,5.345 9.372,5.345 L9.462,5.355 L9.462,5.351 L9.506,0.981" id="Fill-11" fill-opacity="0.8" fill="#FFFFFF" sketch:type="MSShapeGroup"></path>
        <path d="M9.361,14.417 C9.134,14.427 5.444,14.618 1.754,16.248 C5.445,14.618 9.134,14.427 9.361,14.417 M9.406,10.996 L9.4,11.616 L9.406,10.996 M9.441,7.55 L9.433,8.297 L9.441,7.55 M9.506,0.981 L9.506,0.981 L9.462,5.351 L9.506,0.981" id="Fill-12" fill="#FFFFFF" sketch:type="MSShapeGroup"></path>
        <path d="M9.668,16.249 L9.663,16.249 C5.785,16.249 2.742,17.994 2.742,17.994 C2.742,17.994 5.835,19.509 9.663,19.509 C13.73,19.509 16.591,17.994 16.591,17.994 C16.591,17.994 13.703,16.249 9.668,16.249" id="Fill-13" fill-opacity="0.3" fill="#FFFFFF" sketch:type="MSShapeGroup"></path>
    </g>
</svg>